# xmcd
#
# Track frame offsets: 
#        150
#        17257
#        38201
#        52812
#        73167
#
# Disc length: 1089 seconds
#
# Revision: 0
# Processed by: cddbd v1.5.2PL0 Copyright (c) Steve Scherf et al.
# Submitted via: ExactAudioCopyFreeDBPlugin 1.0
#
DISCID=35043f05
DTITLE=ADAM at - Silent Hill
DYEAR=2015
DGENRE=Jazz
TTITLE0=MONOLITH
TTITLE1=Silent Hill
TTITLE2=春夏秋冬山猫囃子
TTITLE3=Sugar Plum
TTITLE4=ToT
EXTD=
EXTT0=
EXTT1=
EXTT2=
EXTT3=
EXTT4=
PLAYORDER=
